<svg width="34" height="34" viewBox="0 0 34 34" fill="none" xmlns="http://www.w3.org/2000/svg">
<path d="M4.29229 6.37598V1.21536C4.29229 1.05215 4.22745 0.895625 4.11205 0.780218C3.99664 0.664811 3.84011 0.599976 3.6769 0.599976C3.51369 0.599976 3.35717 0.664811 3.24176 0.780218C3.12635 0.895625 3.06152 1.05215 3.06152 1.21536V8.59998C3.06152 8.76319 3.12635 8.91971 3.24176 9.03512C3.35717 9.15053 3.51369 9.21536 3.6769 9.21536H11.0615C11.2247 9.21536 11.3813 9.15053 11.4967 9.03512C11.6121 8.91971 11.6769 8.76319 11.6769 8.59998C11.6769 8.43677 11.6121 8.28024 11.4967 8.16483C11.3813 8.04943 11.2247 7.98459 11.0615 7.98459H4.60244C7.28306 4.25782 11.6584 1.83074 16.6 1.83074C24.7563 1.83074 31.3692 8.44367 31.3692 16.6C31.3692 24.7563 24.7563 31.3692 16.6 31.3692C8.44367 31.3692 1.83075 24.7563 1.83075 16.6C1.83075 16.0092 1.8648 15.4271 1.9329 14.8535C1.94417 14.7649 1.9366 14.6749 1.91071 14.5894C1.88481 14.5039 1.84117 14.4248 1.78262 14.3573C1.72408 14.2898 1.65195 14.2354 1.57096 14.1977C1.48997 14.16 1.40193 14.1398 1.31259 14.1384C1.16698 14.1372 1.02597 14.1894 0.916212 14.2851C0.806454 14.3808 0.735551 14.5134 0.716903 14.6578C0.638566 15.3022 0.599519 15.9508 0.59998 16.6C0.59998 25.4369 7.76306 32.6 16.6 32.6C25.4369 32.6 32.6 25.4369 32.6 16.6C32.6 7.76305 25.4369 0.599976 16.6 0.599976C11.6523 0.599976 7.22767 2.84613 4.29229 6.37598ZM15.9846 6.75382C16.1478 6.75382 16.3043 6.81866 16.4197 6.93406C16.5351 7.04947 16.6 7.206 16.6 7.36921V16.6H23.3692C23.5324 16.6 23.6889 16.6648 23.8044 16.7802C23.9198 16.8956 23.9846 17.0522 23.9846 17.2154C23.9846 17.3786 23.9198 17.5351 23.8044 17.6505C23.6889 17.7659 23.5324 17.8307 23.3692 17.8307H15.9846C15.8214 17.8307 15.6649 17.7659 15.5494 17.6505C15.434 17.5351 15.3692 17.3786 15.3692 17.2154V7.36921C15.3692 7.206 15.434 7.04947 15.5494 6.93406C15.6649 6.81866 15.8214 6.75382 15.9846 6.75382Z" stroke="#FF8000" stroke-width="1.2"/>
</svg>
