<svg width="24" height="24" viewBox="0 0 24 24" fill="none" xmlns="http://www.w3.org/2000/svg">
<path d="M20.4306 7.475V20.235C20.4306 20.9352 20.1215 21.6067 19.5714 22.1018C19.0213 22.5969 18.2752 22.875 17.4972 22.875H6.25278C5.47481 22.875 4.7287 22.5969 4.1786 22.1018C3.62849 21.6067 3.31944 20.9352 3.31944 20.235V7.475M16.7639 4.175V2.195C16.7639 1.469 16.1039 0.875 15.2972 0.875H8.45278C7.64611 0.875 6.98611 1.469 6.98611 2.195V4.175M16.7639 4.175H6.98611M16.7639 4.175H22.875M6.98611 4.175H0.875M11.875 10.775V17.375M15.5417 10.775V17.375M8.20833 10.775V17.375" stroke="white" stroke-width="1.75" stroke-miterlimit="10" stroke-linecap="round" stroke-linejoin="round"/>
</svg>
